<svg width="1171" height="179" viewBox="0 0 1171 179" fill="none" xmlns="http://www.w3.org/2000/svg">
<path d="M0.75 89.5C0.75 72.3333 4.58333 57 12.25 43.5C20.0833 29.8333 30.6667 19.25 44 11.75C57.5 4.08333 72.5833 0.249996 89.25 0.249996C108.75 0.249996 125.833 5.25 140.5 15.25C155.167 25.25 165.417 39.0833 171.25 56.75H131C127 48.4167 121.333 42.1667 114 38C106.833 33.8333 98.5 31.75 89 31.75C78.8333 31.75 69.75 34.1667 61.75 39C53.9167 43.6667 47.75 50.3333 43.25 59C38.9167 67.6667 36.75 77.8333 36.75 89.5C36.75 101 38.9167 111.167 43.25 120C47.75 128.667 53.9167 135.417 61.75 140.25C69.75 144.917 78.8333 147.25 89 147.25C98.5 147.25 106.833 145.167 114 141C121.333 136.667 127 130.333 131 122H171.25C165.417 139.833 155.167 153.75 140.5 163.75C126 173.583 108.917 178.5 89.25 178.5C72.5833 178.5 57.5 174.75 44 167.25C30.6667 159.583 20.0833 149 12.25 135.5C4.58333 122 0.75 106.667 0.75 89.5ZM274.645 178.75C258.311 178.75 243.311 174.917 229.645 167.25C215.978 159.583 205.145 149 197.145 135.5C189.145 121.833 185.145 106.417 185.145 89.25C185.145 72.25 189.145 57 197.145 43.5C205.145 29.8333 215.978 19.1667 229.645 11.5C243.311 3.83333 258.311 -1.07288e-06 274.645 -1.07288e-06C291.145 -1.07288e-06 306.145 3.83333 319.645 11.5C333.311 19.1667 344.061 29.8333 351.895 43.5C359.895 57 363.895 72.25 363.895 89.25C363.895 106.417 359.895 121.833 351.895 135.5C344.061 149 333.311 159.583 319.645 167.25C305.978 174.917 290.978 178.75 274.645 178.75ZM274.645 147.5C285.145 147.5 294.395 145.167 302.395 140.5C310.395 135.667 316.645 128.833 321.145 120C325.645 111.167 327.895 100.917 327.895 89.25C327.895 77.5833 325.645 67.4167 321.145 58.75C316.645 49.9167 310.395 43.1667 302.395 38.5C294.395 33.8333 285.145 31.5 274.645 31.5C264.145 31.5 254.811 33.8333 246.645 38.5C238.645 43.1667 232.395 49.9167 227.895 58.75C223.395 67.4167 221.145 77.5833 221.145 89.25C221.145 100.917 223.395 111.167 227.895 120C232.395 128.833 238.645 135.667 246.645 140.5C254.811 145.167 264.145 147.5 274.645 147.5ZM531.684 177H496.684L417.434 57.25V177H382.434V2.24998H417.434L496.684 122.25V2.24998H531.684V177ZM677.521 2.5V30.75H631.021V177H596.021V30.75H549.521V2.5H677.521ZM802.559 143.75H733.059L721.559 177H684.809L747.559 2.24998H788.309L851.059 177H814.059L802.559 143.75ZM793.059 115.75L767.809 42.75L742.559 115.75H793.059ZM858.514 89.5C858.514 72.3333 862.347 57 870.014 43.5C877.847 29.8333 888.43 19.25 901.764 11.75C915.264 4.08333 930.347 0.249996 947.014 0.249996C966.514 0.249996 983.597 5.25 998.264 15.25C1012.93 25.25 1023.18 39.0833 1029.01 56.75H988.764C984.764 48.4167 979.097 42.1667 971.764 38C964.597 33.8333 956.264 31.75 946.764 31.75C936.597 31.75 927.514 34.1667 919.514 39C911.68 43.6667 905.514 50.3333 901.014 59C896.68 67.6667 894.514 77.8333 894.514 89.5C894.514 101 896.68 111.167 901.014 120C905.514 128.667 911.68 135.417 919.514 140.25C927.514 144.917 936.597 147.25 946.764 147.25C956.264 147.25 964.597 145.167 971.764 141C979.097 136.667 984.764 130.333 988.764 122H1029.01C1023.18 139.833 1012.93 153.75 998.264 163.75C983.764 173.583 966.68 178.5 947.014 178.5C930.347 178.5 915.264 174.75 901.764 167.25C888.43 159.583 877.847 149 870.014 135.5C862.347 122 858.514 106.667 858.514 89.5ZM1170.16 2.5V30.75H1123.66V177H1088.66V30.75H1042.16V2.5H1170.16Z" fill="url(#paint0_linear)"/>
<defs>
<linearGradient id="paint0_linear" x1="586.219" y1="-8.99999" x2="586.219" y2="177" gradientUnits="userSpaceOnUse">
<stop stop-color="white"/>
<stop offset="0.401752" stop-color="white" stop-opacity="0.8"/>
<stop offset="1" stop-color="white" stop-opacity="0"/>
</linearGradient>
</defs>
</svg>
