<?xml version="1.0" encoding="utf-8"?>
<!-- Generator: Adobe Illustrator 26.0.3, SVG Export Plug-In . SVG Version: 6.00 Build 0)  -->
<svg version="1.1" id="圖層_1" xmlns="http://www.w3.org/2000/svg" xmlns:xlink="http://www.w3.org/1999/xlink" x="0px" y="0px"
	 viewBox="0 0 670.1 172.5" style="enable-background:new 0 0 670.1 172.5;" xml:space="preserve">
<style type="text/css">
	.st0{fill:url(#SVGID_1_);}
	.st1{fill:url(#SVGID_00000017503630176444492830000012588008604279452049_);}
	.st2{fill:url(#SVGID_00000042718479729005443530000012247488385901803400_);}
	.st3{fill:url(#SVGID_00000013883613107556644910000004917313085051705747_);}
	.st4{fill:url(#SVGID_00000071551106823744741300000002583518810422747060_);}
</style>
<g>
	<linearGradient id="SVGID_1_" gradientUnits="userSpaceOnUse" x1="59.8721" y1="3.0039" x2="59.8721" y2="169.4371">
		<stop  offset="0" style="stop-color:#FFFFFF"/>
		<stop  offset="0.4018" style="stop-color:#FFFFFF;stop-opacity:0.8"/>
		<stop  offset="1" style="stop-color:#FFFFFF;stop-opacity:0"/>
	</linearGradient>
	<path class="st0" d="M1.3,169.5V4.3h33.6v137.1h83.6v28.1H1.3z"/>
	
		<linearGradient id="SVGID_00000020384075688596964620000017692613394719734449_" gradientUnits="userSpaceOnUse" x1="158.2554" y1="2.9648" x2="158.2554" y2="169.5127">
		<stop  offset="0" style="stop-color:#FFFFFF"/>
		<stop  offset="0.4018" style="stop-color:#FFFFFF;stop-opacity:0.8"/>
		<stop  offset="1" style="stop-color:#FFFFFF;stop-opacity:0"/>
	</linearGradient>
	<path style="fill:url(#SVGID_00000020384075688596964620000017692613394719734449_);" d="M141.4,169.5V3h33.6v166.5H141.4z"/>
	
		<linearGradient id="SVGID_00000152972159962711770950000012911560331750644107_" gradientUnits="userSpaceOnUse" x1="273.5098" y1="2.9648" x2="273.5098" y2="169.5127">
		<stop  offset="0" style="stop-color:#FFFFFF"/>
		<stop  offset="0.4018" style="stop-color:#FFFFFF;stop-opacity:0.8"/>
		<stop  offset="1" style="stop-color:#FFFFFF;stop-opacity:0"/>
	</linearGradient>
	<path style="fill:url(#SVGID_00000152972159962711770950000012911560331750644107_);" d="M207.4,169.5V3h32.7l68.2,111.2V3h31.2
		v166.5h-33.7L238.7,60.9v108.6H207.4z"/>
	
		<linearGradient id="SVGID_00000086658331299757448990000010394541961062865316_" gradientUnits="userSpaceOnUse" x1="450.6797" y1="2.9648" x2="450.6797" y2="169.5127">
		<stop  offset="0" style="stop-color:#FFFFFF"/>
		<stop  offset="0.4018" style="stop-color:#FFFFFF;stop-opacity:0.8"/>
		<stop  offset="1" style="stop-color:#FFFFFF;stop-opacity:0"/>
	</linearGradient>
	<path style="fill:url(#SVGID_00000086658331299757448990000010394541961062865316_);" d="M375.6,169.5V3h33.6v74l67.9-74h45.2
		l-62.7,64.9l66.1,101.7h-43.5l-45.8-78.2l-27.3,27.8v50.3H375.6z"/>
	
		<linearGradient id="SVGID_00000132058794143741737580000009758095493121220017_" gradientUnits="userSpaceOnUse" x1="602.3443" y1="3.0039" x2="602.3443" y2="169.4371">
		<stop  offset="0" style="stop-color:#FFFFFF"/>
		<stop  offset="0.4018" style="stop-color:#FFFFFF;stop-opacity:0.8"/>
		<stop  offset="1" style="stop-color:#FFFFFF;stop-opacity:0"/>
	</linearGradient>
	<path style="fill:url(#SVGID_00000132058794143741737580000009758095493121220017_);" d="M534.6,115.3l32.7-3.2c2,11,6,19,12,24.2
		c6,5.2,14.1,7.7,24.4,7.7c10.8,0,19-2.3,24.5-6.9c5.5-4.6,8.2-9.9,8.2-16.1c0-3.9-1.2-7.3-3.5-10.1c-2.3-2.8-6.3-5.2-12.1-7.2
		c-3.9-1.4-12.9-3.8-26.9-7.3c-18-4.5-30.7-10-37.9-16.5c-10.2-9.2-15.3-20.3-15.3-33.5c0-8.5,2.4-16.4,7.2-23.8
		c4.8-7.4,11.7-13,20.8-16.9c9-3.9,20-5.8,32.8-5.8c20.9,0,36.6,4.6,47.2,13.7c10.6,9.2,16.1,21.4,16.6,36.7L631.7,52
		c-1.4-8.6-4.5-14.7-9.3-18.5c-4.7-3.7-11.8-5.6-21.3-5.6c-9.8,0-17.4,2-22.9,6c-3.6,2.6-5.3,6-5.3,10.3c0,3.9,1.7,7.3,5,10.1
		c4.2,3.6,14.5,7.3,30.9,11.1s28.5,7.9,36.3,12c7.8,4.1,14,9.8,18.4,16.9s6.6,16,6.6,26.5c0,9.5-2.7,18.5-8,26.8
		c-5.3,8.3-12.8,14.5-22.5,18.6c-9.7,4.1-21.8,6.1-36.2,6.1c-21.1,0-37.2-4.9-48.5-14.6C543.6,148.1,536.8,134,534.6,115.3z"/>
</g>
</svg>
