<svg width="675" height="179" viewBox="0 0 675 179" fill="none" xmlns="http://www.w3.org/2000/svg">
<g clip-path="url(#clip0)">
<path d="M149.5 177H114.5L35.25 57.25V177H0.250001V2.24998H35.25L114.5 122.25V2.24998H149.5V177ZM211.588 30.75V74.5H270.338V102.25H211.588V148.5H277.838V177H176.588V2.24998H277.838V30.75H211.588ZM535.395 2.5L486.645 177H445.395L412.645 52.75L378.395 177L337.395 177.25L290.395 2.5H327.895L358.645 138L394.145 2.5H433.145L466.645 137.25L497.645 2.5H535.395ZM610.998 178.75C598.831 178.75 587.831 176.667 577.998 172.5C568.331 168.333 560.665 162.333 554.998 154.5C549.331 146.667 546.415 137.417 546.248 126.75H583.748C584.248 133.917 586.748 139.583 591.248 143.75C595.915 147.917 602.248 150 610.248 150C618.415 150 624.831 148.083 629.498 144.25C634.165 140.25 636.498 135.083 636.498 128.75C636.498 123.583 634.915 119.333 631.748 116C628.581 112.667 624.581 110.083 619.748 108.25C615.081 106.25 608.581 104.083 600.248 101.75C588.915 98.4167 579.665 95.1667 572.498 92C565.498 88.6667 559.415 83.75 554.248 77.25C549.248 70.5833 546.748 61.75 546.748 50.75C546.748 40.4167 549.331 31.4167 554.498 23.75C559.665 16.0833 566.915 10.25 576.248 6.24999C585.581 2.08333 596.248 -1.07288e-06 608.248 -1.07288e-06C626.248 -1.07288e-06 640.831 4.41666 651.998 13.25C663.331 21.9167 669.581 34.0833 670.748 49.75H632.248C631.915 43.75 629.331 38.8333 624.498 35C619.831 31 613.581 29 605.748 29C598.915 29 593.415 30.75 589.248 34.25C585.248 37.75 583.248 42.8333 583.248 49.5C583.248 54.1667 584.748 58.0833 587.748 61.25C590.915 64.25 594.748 66.75 599.248 68.75C603.915 70.5833 610.415 72.75 618.748 75.25C630.081 78.5833 639.331 81.9167 646.498 85.25C653.665 88.5833 659.831 93.5833 664.998 100.25C670.165 106.917 672.748 115.667 672.748 126.5C672.748 135.833 670.331 144.5 665.498 152.5C660.665 160.5 653.581 166.917 644.248 171.75C634.915 176.417 623.831 178.75 610.998 178.75Z" fill="url(#paint0_linear)"/>
</g>
<defs>
<linearGradient id="paint0_linear" x1="334.926" y1="-8.99999" x2="334.926" y2="177" gradientUnits="userSpaceOnUse">
<stop stop-color="white"/>
<stop offset="0.401752" stop-color="white" stop-opacity="0.8"/>
<stop offset="1" stop-color="white" stop-opacity="0"/>
</linearGradient>
<clipPath id="clip0">
<rect width="675" height="179" fill="white"/>
</clipPath>
</defs>
</svg>
